<svg xmlns="http://www.w3.org/2000/svg" width="551" height="508" viewBox="0 0 551 508">
  <defs>
    <style>
      .cls-1 {
        fill: #4dbae3;
        fill-rule: evenodd;
      }
    </style>
  </defs>
  <path id="Forma_1" data-name="Forma 1" class="cls-1" d="M465.093,431.615c14.744,67.645-58.732,82.324-91.1,73.517s-98.376-10.275-98.376-10.275-66.2,1.468-98.559,10.275C144.7,514,71.163,499.26,85.846,431.615s79.41-64.71,97.152-155.9c17.68-91.193,92.685-85.322,92.685-85.322s74.822-5.871,92.5,85.322C385.805,366.905,450.41,363.969,465.093,431.615ZM343.531,184.457c39.827,11.5,83.815-19.939,98.314-70.215C456.344,64.028,435.85,14,396.022,2.5s-83.815,19.939-98.314,70.215C283.208,122.927,303.7,172.958,343.531,184.457Zm165.06-18.288c-38.359-15.658-85.467,10.887-105.227,59.328s-4.711,100.368,33.648,115.964,85.467-10.887,105.228-59.328S546.95,181.827,508.591,166.169ZM207.408,184.457c39.827-11.5,60.322-61.53,45.823-111.744S194.683-8.939,154.917,2.559,94.594,64.089,109.094,114.3,167.581,195.955,207.408,184.457Zm-93.42,157C152.347,325.8,167.4,273.876,147.636,225.5S80.768,150.511,42.409,166.169-11,233.754,8.76,282.133C28.521,330.574,75.629,357.119,113.988,341.461Z"/>
</svg>
