<?xml version="1.0" encoding="utf-8"?>
<!-- Generator: Adobe Illustrator 19.2.1, SVG Export Plug-In . SVG Version: 6.00 Build 0)  -->
<svg version="1.1" id="Layer_1" xmlns="http://www.w3.org/2000/svg" xmlns:xlink="http://www.w3.org/1999/xlink" x="0px" y="0px"
	 viewBox="0 0 217 180" style="enable-background:new 0 0 217 180;" xml:space="preserve">
<style type="text/css">
	.st0{fill:#3D91AF;}
	.st1{fill:#E6E5E5;}
	.st2{fill:#242D3C;}
	.st3{fill:#F2F2F2;}
	.st4{fill:#D9D8D7;}
	.st5{fill:#FFFFFF;}
	.st6{fill:#FFCA40;}
	.st7{fill:#3E4959;}
	.st8{fill:#131A26;}
</style>
<g>
	<g>
		<g>
			<g>
				<g>
					<rect x="133.3" y="58.1" class="st0" width="83.6" height="122"/>
					<rect x="133.3" y="50.3" class="st1" width="83.6" height="7.8"/>
				</g>
				<g>
					<rect x="144.8" y="69.7" class="st2" width="41.7" height="2"/>
					<rect x="158.6" y="73.2" class="st2" width="23.1" height="2"/>
					<rect x="154.9" y="76.8" class="st2" width="50.4" height="2"/>
					<rect x="154.9" y="80.3" class="st2" width="7.4" height="2"/>
					<rect x="144.8" y="89" class="st2" width="19" height="2"/>
					<rect x="154.9" y="92.6" class="st2" width="47.3" height="2"/>
					<rect x="154.9" y="96.1" class="st2" width="38.9" height="2"/>
					<rect x="144.8" y="104.8" class="st2" width="31.2" height="2"/>
					<rect x="154.9" y="108.4" class="st2" width="33.7" height="2"/>
					<rect x="154.9" y="111.9" class="st2" width="8.9" height="2"/>
					<rect x="161.4" y="115.4" class="st2" width="38.8" height="2"/>
					<rect x="154.9" y="119" class="st2" width="12.9" height="2"/>
					<rect x="144.8" y="127.7" class="st2" width="21.1" height="2"/>
					<rect x="155" y="131.2" class="st2" width="26.7" height="2"/>
					<rect x="155" y="134.8" class="st2" width="15.7" height="2"/>
					<rect x="144.8" y="143.5" class="st2" width="49.1" height="2"/>
					<rect x="154.9" y="147" class="st2" width="10.9" height="2"/>
					<rect x="154.9" y="150.6" class="st2" width="23.1" height="2"/>
					<rect x="167" y="154.1" class="st2" width="36.1" height="2"/>
					<rect x="144.8" y="162.8" class="st2" width="28.3" height="2"/>
					<rect x="154.9" y="166.4" class="st2" width="34.4" height="2"/>
				</g>
			</g>
			<g>
				<g>
					<polygon class="st3" points="111.2,176.7 66,176.7 70.1,153.6 107.1,153.6 					"/>
					<polygon class="st4" points="111.2,176.7 107.1,153.6 70.1,153.6 99.7,176.7 					"/>
					<path class="st4" d="M123.3,180.1H53.9v-1.3c0-0.5,0.2-1.1,0.6-1.5c0.4-0.4,1-0.6,1.5-0.6h65.2c0.5,0,1.1,0.2,1.5,0.6
						s0.6,1,0.6,1.5V180.1z"/>
				</g>
				<path class="st2" d="M170,138.7V34.8c0-2.2-1.8-4-4-4H11.2c-2.2,0-4,1.8-4,4v103.9H170z"/>
				<rect x="15.5" y="39" class="st5" width="146.3" height="91.5"/>
				<path class="st5" d="M170,138.7v10.9c0,2.2-1.8,4-4,4H11.2c-2.2,0-4-1.8-4-4v-10.9H170z"/>
			</g>
			<g>
				<g>
					<rect x="21.7" y="40.7" class="st5" width="83.6" height="89.8"/>
					<rect x="21.7" y="46.8" class="st0" width="83.6" height="41.8"/>
					<g>
						<g>
							<rect x="28.1" y="95.1" class="st6" width="19.3" height="15.4"/>
							<rect x="53.8" y="95.1" class="st6" width="19.3" height="15.4"/>
							<rect x="79.5" y="95.1" class="st6" width="19.3" height="15.4"/>
						</g>
					</g>
					<g>
						<g>
							<rect x="28.1" y="53.2" class="st5" width="19.3" height="15.4"/>
							<rect x="53.8" y="53.2" class="st5" width="19.3" height="15.4"/>
							<rect x="79.5" y="53.2" class="st5" width="19.3" height="15.4"/>
						</g>
					</g>
				</g>
				<g>
					<g>
						<g>
							<rect x="28.1" y="113.2" class="st2" width="19.3" height="1.7"/>
							<rect x="28.1" y="116.5" class="st2" width="19.3" height="1.7"/>
							<rect x="28.1" y="119.9" class="st2" width="19.3" height="1.7"/>
							<rect x="28.1" y="123.2" class="st2" width="9.6" height="1.7"/>
						</g>
						<g>
							<rect x="53.8" y="113.2" class="st2" width="19.3" height="1.7"/>
							<rect x="53.8" y="116.5" class="st2" width="19.3" height="1.7"/>
							<rect x="53.8" y="119.9" class="st2" width="19.3" height="1.7"/>
							<rect x="53.8" y="123.2" class="st2" width="9.6" height="1.7"/>
						</g>
						<g>
							<rect x="79.5" y="113.2" class="st2" width="19.3" height="1.7"/>
							<rect x="79.5" y="116.5" class="st2" width="19.3" height="1.7"/>
							<rect x="79.5" y="119.9" class="st2" width="19.3" height="1.7"/>
							<rect x="79.5" y="123.2" class="st2" width="9.6" height="1.7"/>
						</g>
					</g>
					<g>
						<rect x="28.1" y="71.4" class="st2" width="70.7" height="1.7"/>
						<rect x="28.1" y="74.7" class="st2" width="70.7" height="1.7"/>
						<rect x="28.1" y="78" class="st2" width="70.7" height="1.7"/>
						<rect x="28.1" y="81.4" class="st2" width="35.4" height="1.7"/>
					</g>
				</g>
			</g>
			<g>
				<rect x="138.3" y="0.7" class="st4" width="17.3" height="129.7"/>
				<g>
					<g>
						<rect x="138.3" y="125.4" class="st2" width="4.5" height="1.5"/>
						<rect x="138.3" y="116.8" class="st2" width="4.5" height="1.5"/>
						<rect x="138.3" y="108.1" class="st2" width="4.5" height="1.5"/>
						<rect x="138.3" y="99.5" class="st2" width="4.5" height="1.5"/>
						<rect x="138.3" y="90.8" class="st2" width="4.5" height="1.5"/>
						<rect x="138.3" y="82.2" class="st2" width="4.5" height="1.5"/>
						<rect x="138.3" y="73.5" class="st2" width="4.5" height="1.5"/>
						<rect x="138.3" y="64.9" class="st2" width="4.5" height="1.5"/>
						<rect x="138.3" y="56.2" class="st2" width="4.5" height="1.5"/>
						<rect x="138.3" y="47.6" class="st2" width="4.5" height="1.5"/>
						<rect x="138.3" y="38.9" class="st2" width="4.5" height="1.5"/>
						<rect x="138.3" y="25.9" class="st2" width="4.5" height="1.5"/>
						<rect x="138.3" y="17.3" class="st2" width="4.5" height="1.5"/>
						<rect x="138.3" y="8.6" class="st2" width="4.5" height="1.5"/>
					</g>
					<g>
						<rect x="138.3" y="121.1" class="st2" width="2.4" height="1.5"/>
						<rect x="138.3" y="112.4" class="st2" width="2.4" height="1.5"/>
						<rect x="138.3" y="103.8" class="st2" width="2.4" height="1.5"/>
						<rect x="138.3" y="95.1" class="st2" width="2.4" height="1.5"/>
						<rect x="138.3" y="86.5" class="st2" width="2.4" height="1.5"/>
						<rect x="138.3" y="77.8" class="st2" width="2.4" height="1.5"/>
						<rect x="138.3" y="69.2" class="st2" width="2.4" height="1.5"/>
						<rect x="138.3" y="60.5" class="st2" width="2.4" height="1.5"/>
						<rect x="138.3" y="51.9" class="st2" width="2.4" height="1.5"/>
						<rect x="138.3" y="43.2" class="st2" width="2.4" height="1.5"/>
						<rect x="138.3" y="34.6" class="st2" width="2.4" height="1.5"/>
						<rect x="138.3" y="30.3" class="st2" width="2.4" height="1.5"/>
						<rect x="138.3" y="21.6" class="st2" width="2.4" height="1.5"/>
						<rect x="138.3" y="13" class="st2" width="2.4" height="1.5"/>
						<rect x="138.3" y="4.3" class="st2" width="2.4" height="1.5"/>
					</g>
				</g>
			</g>
			<g>
				<rect x="117.8" y="30.8" class="st6" width="7.9" height="8.2"/>
				<rect x="117.8" y="60.8" class="st6" width="7.9" height="69.7"/>
				<rect x="121.8" y="60.8" class="st6" width="3.9" height="69.7"/>
				<path class="st5" d="M132.8,23.7L132.8,23.7L132.8,23.7l-11-23.8l-11,23.8l0,0l0,0l0,0h0c3.9,0,7.1,3.2,7.1,7.1v0h7.9l0,0
					C125.7,26.9,128.9,23.7,132.8,23.7L132.8,23.7L132.8,23.7z"/>
				
					<rect x="114.3" y="6.9" transform="matrix(2.600859e-03 -1 1 2.600859e-03 114.1365 129.1066)" class="st2" width="14.9" height="0.9"/>
				<g>
					<path class="st7" d="M126.5,39c0.1,0,0.2,0,0.3,0.1c0.1,0.1,0.1,0.2,0.1,0.3v21c0,0.1,0,0.2-0.1,0.3c-0.1,0.1-0.2,0.1-0.3,0.1
						H117c-0.1,0-0.2,0-0.3-0.1c-0.1-0.1-0.1-0.2-0.1-0.3v-21c0-0.1,0-0.2,0.1-0.3c0.1-0.1,0.2-0.1,0.3-0.1H126.5z"/>
					<rect x="116.7" y="39.4" class="st8" width="10.2" height="21"/>
					<g>
						<rect x="126.3" y="39.4" class="st7" width="0.3" height="21"/>
						<rect x="125.6" y="39.4" class="st7" width="0.3" height="21"/>
						<rect x="124.9" y="39.4" class="st7" width="0.3" height="21"/>
						<rect x="124.1" y="39.4" class="st7" width="0.3" height="21"/>
						<rect x="123.4" y="39.4" class="st7" width="0.3" height="21"/>
						<rect x="122.7" y="39.4" class="st7" width="0.3" height="21"/>
						<rect x="122" y="39.4" class="st7" width="0.3" height="21"/>
						<rect x="121.3" y="39.4" class="st7" width="0.3" height="21"/>
						<rect x="120.6" y="39.4" class="st7" width="0.3" height="21"/>
						<rect x="119.8" y="39.4" class="st7" width="0.3" height="21"/>
						<rect x="119.1" y="39.4" class="st7" width="0.3" height="21"/>
						<rect x="118.4" y="39.4" class="st7" width="0.3" height="21"/>
						<rect x="117.7" y="39.4" class="st7" width="0.3" height="21"/>
						<rect x="117" y="39.4" class="st7" width="0.3" height="21"/>
					</g>
				</g>
			</g>
			<path class="st2" d="M216.8,22.6v-4.4h-3.5c-0.2-1.4-0.6-2.8-1.1-4l3-1.7l-2.2-3.8l-3,1.7c-0.9-1.1-1.9-2.1-3-3l1.7-3l-3.8-2.2
				l-1.7,3c-1.3-0.5-2.6-0.9-4-1.1V0.7h-4.4v3.5c-1.4,0.2-2.8,0.6-4,1.1l-1.7-3l-3.8,2.2l1.7,3c-1.1,0.9-2.1,1.9-3,3l-3-1.7
				l-2.2,3.8l3,1.7c-0.5,1.3-0.9,2.6-1.1,4h-3.5v4.4h3.5c0.2,1.4,0.6,2.8,1.1,4l-3,1.7l2.2,3.8l3-1.7c0.9,1.1,1.9,2.1,3,3l-1.7,3
				l3.8,2.2l1.7-3c1.3,0.5,2.6,0.9,4,1.1v3.5h4.4v-3.5c1.4-0.2,2.8-0.6,4-1.1l1.7,3l3.8-2.2l-1.7-3c1.1-0.9,2.1-1.9,3-3l3,1.7
				l2.2-3.8l-3-1.7c0.5-1.3,0.9-2.6,1.1-4H216.8z M197.1,31.2c-5.9,0-10.7-4.8-10.7-10.7c0-5.9,4.8-10.7,10.7-10.7
				c5.9,0,10.7,4.8,10.7,10.7C207.9,26.4,203,31.2,197.1,31.2z"/>
		</g>
	</g>
	<g>
		<g>
			<path class="st2" d="M38.9,118.9c0.8,0,1.5,0.3,2.1,0.9c0.6,0.6,0.9,1.3,0.9,2.1v58.3H0.2v-58.3c0-0.8,0.3-1.5,0.9-2.1
				c0.6-0.6,1.3-0.9,2.1-0.9H38.9z"/>
			<g>
				<rect x="6.1" y="124.8" class="st4" width="29.8" height="43.3"/>
				<g>
					<g>
						<polygon class="st5" points="9.4,128.1 8.5,128.1 8.5,128.2 9.4,128.2 9.4,130.2 9.5,130.2 9.5,128.2 11.5,128.2 11.5,128.1 
							9.5,128.1 9.5,127.2 9.4,127.2 						"/>
						<polygon class="st5" points="8.5,164.7 8.5,164.8 9.4,164.8 9.4,165.7 9.5,165.7 9.5,164.8 11.5,164.8 11.5,164.7 9.5,164.7 
							9.5,162.8 9.4,162.8 9.4,164.7 						"/>
						<polygon class="st5" points="30.5,128.1 30.5,128.2 32.5,128.2 32.5,130.2 32.6,130.2 32.6,128.2 33.5,128.2 33.5,128.1 
							32.6,128.1 32.6,127.2 32.5,127.2 32.5,128.1 						"/>
						<polygon class="st5" points="30.5,164.7 30.5,164.8 32.5,164.8 32.5,165.7 32.6,165.7 32.6,164.8 33.5,164.8 33.5,164.7 
							32.6,164.7 32.6,162.8 32.5,162.8 32.5,164.7 						"/>
					</g>
				</g>
			</g>
			<g>
				<g>
					<circle class="st4" cx="21" cy="173.1" r="3.3"/>
					<circle class="st4" cx="21" cy="173.1" r="1.4"/>
				</g>
				<g>
					<g>
						<rect x="6.1" y="171.6" class="st4" width="1.8" height="3"/>
						<rect x="9.3" y="171.6" class="st4" width="1.8" height="3"/>
						<rect x="12.5" y="171.6" class="st4" width="1.8" height="3"/>
						<rect x="27.7" y="171.6" class="st4" width="1.8" height="3"/>
						<rect x="30.9" y="171.6" class="st4" width="1.8" height="3"/>
						<rect x="34.1" y="171.6" class="st4" width="1.8" height="3"/>
					</g>
				</g>
			</g>
		</g>
		<g>
			<g>
				<g>
					<g>
						<g>
							<g>
								<rect x="11.7" y="131.3" class="st6" width="19.3" height="15.4"/>
							</g>
						</g>
					</g>
					<g>
						<g>
							<g>
								<rect x="11.7" y="149.4" class="st2" width="19.3" height="1.7"/>
								<rect x="11.7" y="152.8" class="st2" width="19.3" height="1.7"/>
								<rect x="11.7" y="156.1" class="st2" width="19.3" height="1.7"/>
								<rect x="11.7" y="159.4" class="st2" width="9.6" height="1.7"/>
							</g>
						</g>
					</g>
				</g>
			</g>
		</g>
	</g>
</g>
</svg>
